<?xml version="1.0" encoding="utf-8"?>
<!-- Generator: Adobe Illustrator 17.1.0, SVG Export Plug-In . SVG Version: 6.00 Build 0)  -->
<!DOCTYPE svg PUBLIC "-//W3C//DTD SVG 1.1//EN" "http://www.w3.org/Graphics/SVG/1.1/DTD/svg11.dtd" [
	<!ENTITY ns_flows "http://ns.adobe.com/Flows/1.0/">
	<!ENTITY ns_extend "http://ns.adobe.com/Extensibility/1.0/">
	<!ENTITY ns_ai "http://ns.adobe.com/AdobeIllustrator/10.0/">
	<!ENTITY ns_graphs "http://ns.adobe.com/Graphs/1.0/">
]>
<svg version="1.1" id="Layer_1" xmlns:x="&ns_extend;" xmlns:i="&ns_ai;" xmlns:graph="&ns_graphs;"
	 xmlns="http://www.w3.org/2000/svg" xmlns:xlink="http://www.w3.org/1999/xlink" xmlns:a="http://ns.adobe.com/AdobeSVGViewerExtensions/3.0/"
	 x="0px" y="0px" viewBox="0 0 15 15" enable-background="new 0 0 15 15" xml:space="preserve">
<g>
	<path fill-rule="evenodd" clip-rule="evenodd" fill="#FF1B55" d="M7.5,2c3,0,5.5,2.5,5.5,5.5S10.5,13,7.5,13C4.5,13,2,10.5,2,7.5
		S4.5,2,7.5,2z"/>
	<path fill="#D90233" d="M7.5,2c3,0,5.5,2.5,5.5,5.5S10.5,13,7.5,13C4.5,13,2,10.5,2,7.5S4.5,2,7.5,2 M7.5,0C3.4,0,0,3.4,0,7.5
		S3.4,15,7.5,15S15,11.6,15,7.5S11.6,0,7.5,0L7.5,0z"/>
</g>
</svg>
