<?xml version="1.0" encoding="UTF-8"?>
<svg width="12px" height="12px" viewBox="0 0 12 12" version="1.1" xmlns="http://www.w3.org/2000/svg" xmlns:xlink="http://www.w3.org/1999/xlink">
    <!-- Generator: Sketch 46.1 (44463) - http://www.bohemiancoding.com/sketch -->
    <title>Shape</title>
    <desc>Created with Sketch.</desc>
    <defs></defs>
    <g id="Header" stroke="none" stroke-width="1" fill="none" fill-rule="evenodd">
        <g id="Active---Navigation" transform="translate(-1293.000000, -10.000000)" fill-rule="nonzero" fill="#000000">
            <g id="key-2.3.3.1" transform="translate(1293.000000, 9.000000)">
                <g id="Filled_Icons_1_" transform="translate(0.000000, 1.000000)">
                    <g id="Filled_Icons">
                        <path d="M11.6865,3.47217391 L10.6135,2.352 L11.1865,1.75408696 C11.5595,1.36434783 11.5585,0.730434783 11.1865,0.341217391 C10.8135,-0.0469565217 10.2065,-0.0474782609 9.833,0.34173913 L4.3325,6.08086957 C3.21,5.4986087 1.813,5.68069565 0.8785,6.65582609 C-0.291,7.87669565 -0.291,9.86243478 0.8785,11.0833043 C2.048,12.3031304 3.9515,12.3031304 5.121,11.0833043 C6.0505,10.113913 6.2285,8.66608696 5.682,7.4973913 L8.0095,5.06921739 L8.8325,5.928 C8.93,6.02973913 9.0885,6.02973913 9.186,5.928 L9.936,5.1453913 C10.0335,5.04365217 10.0335,4.87826087 9.936,4.77652174 L9.113,3.91721739 L9.5095,3.50347826 L10.5825,4.62365217 C10.68,4.7253913 10.8385,4.7253913 10.936,4.62365217 L11.686,3.84104348 C11.784,3.73930435 11.784,3.57391304 11.6865,3.47217391 Z M4.061,9.97669565 C3.4755,10.5876522 2.5255,10.5871304 1.9395,9.97617391 C1.354,9.36573913 1.354,8.37391304 1.9395,7.76295652 C2.5255,7.15147826 3.475,7.15147826 4.061,7.76243478 C4.6465,8.37391304 4.6465,9.36573913 4.061,9.97669565 Z" id="Shape"></path>
                    </g>
                </g>
            </g>
        </g>
    </g>
</svg>